<svg version="1.0" xmlns="http://www.w3.org/2000/svg"
 width="334.000000pt" height="118.000000pt" viewBox="0 0 334.000000 118.000000"
 preserveAspectRatio="xMidYMid meet">

<g transform="translate(0.000000,118.000000) scale(0.100000,-0.100000)"
fill="#000000" stroke="none">
<path d="M66 1044 c-8 -20 -8 -808 0 -828 6 -15 155 -16 1594 -16 1439 0 1588
1 1594 16 8 20 8 808 0 828 -6 15 -155 16 -1594 16 -1439 0 -1588 -1 -1594
-16z m3114 -414 l0 -350 -1520 0 -1520 0 0 350 0 350 1520 0 1520 0 0 -350z"/>
<path d="M685 866 c-16 -7 -36 -24 -43 -36 -8 -12 -25 -105 -39 -205 -25 -173
-25 -185 -9 -209 18 -29 54 -41 91 -32 53 13 75 56 89 169 l6 48 -37 -3 -38
-3 -11 -68 c-11 -68 -18 -86 -31 -73 -12 12 40 349 55 354 11 3 13 -10 7 -72
l-7 -76 35 0 c38 0 38 0 53 115 5 41 2 55 -13 73 -23 28 -69 36 -108 18z"/>
<path d="M1345 871 c-50 -21 -59 -46 -86 -234 -14 -99 -23 -192 -19 -206 10
-39 49 -57 96 -46 61 16 73 43 100 221 29 193 30 226 6 247 -23 21 -70 29 -97
18z m35 -89 c0 -15 -9 -93 -20 -172 -19 -133 -30 -173 -45 -158 -5 5 28 280
40 336 7 31 25 28 25 -6z"/>
<path d="M1705 871 c-46 -19 -57 -46 -81 -208 -30 -200 -30 -237 -3 -264 28
-28 92 -21 127 14 21 22 27 45 48 183 24 168 29 231 16 251 -8 13 -56 33 -75
32 -7 0 -21 -4 -32 -8z m19 -241 c-24 -157 -34 -194 -48 -172 -7 12 31 298 45
331 6 14 14 20 19 15 5 -5 -1 -75 -16 -174z"/>
<path d="M1915 871 c-47 -20 -57 -45 -81 -213 -38 -260 -36 -266 77 -266 l66
0 17 116 c23 167 24 162 -23 162 -36 0 -40 -3 -46 -30 -4 -16 -4 -34 -1 -39 8
-12 -4 -115 -15 -132 -5 -9 -11 -10 -18 -4 -8 9 28 293 43 332 12 30 27 1 21
-38 l-7 -39 35 0 c40 0 47 11 47 73 0 48 -6 59 -37 76 -25 13 -49 13 -78 2z"/>
<path d="M2325 866 c-38 -16 -54 -52 -62 -131 -6 -62 -6 -63 36 -107 34 -38
41 -52 40 -84 -1 -52 -12 -87 -28 -92 -10 -3 -11 9 -6 62 l7 66 -31 0 c-38 0
-50 -24 -54 -107 -2 -48 1 -57 23 -75 19 -15 34 -19 63 -15 67 9 92 46 102
155 l8 72 -47 46 c-43 42 -46 48 -40 82 9 57 15 72 26 72 7 0 8 -19 3 -55 l-6
-55 35 0 c19 0 38 4 41 10 13 22 9 130 -5 145 -22 22 -71 27 -105 11z"/>
<path d="M2761 868 c-49 -26 -59 -55 -85 -241 -28 -193 -25 -219 19 -239 35
-16 93 0 117 33 14 18 26 72 43 190 14 90 25 176 25 190 0 56 -68 94 -119 67z
m39 -87 c0 -51 -41 -316 -51 -325 -5 -5 -12 -7 -15 -3 -6 5 27 271 41 335 8
32 25 27 25 -7z"/>
<path d="M260 835 c0 -31 3 -35 25 -35 21 0 25 -4 20 -22 -6 -25 -55 -364 -55
-380 0 -5 17 -8 37 -6 l38 3 16 115 c45 318 39 290 64 290 23 0 35 17 35 51 0
17 -8 19 -90 19 l-90 0 0 -35z"/>
<path d="M432 648 c-18 -123 -32 -231 -32 -240 0 -16 10 -18 75 -18 l75 0 0
35 c0 33 -2 35 -36 35 -29 0 -34 3 -30 18 3 9 8 43 12 75 6 51 9 57 30 57 25
0 28 3 38 42 5 24 3 27 -21 30 -30 3 -30 6 -17 86 4 29 8 32 38 32 35 0 46 13
46 51 0 17 -8 19 -73 19 l-74 0 -31 -222z"/>
<path d="M850 861 c0 -5 -13 -102 -30 -216 -38 -265 -39 -255 4 -255 37 0 37
0 51 115 10 80 14 95 30 95 8 0 15 -3 15 -7 0 -8 -16 -113 -25 -170 -6 -33 -5
-33 33 -33 l39 0 32 228 c17 125 31 233 31 240 0 7 -13 12 -34 12 l-34 0 -12
-72 c-19 -120 -21 -128 -37 -128 -13 0 -14 8 -9 41 4 22 9 67 13 100 l6 59
-37 0 c-20 0 -36 -4 -36 -9z"/>
<path d="M1065 858 c-2 -7 -16 -101 -30 -208 -14 -107 -29 -210 -32 -227 -5
-32 -4 -33 30 -33 38 0 38 -1 53 117 8 68 24 58 24 -15 0 -88 7 -102 46 -102
38 0 31 -26 69 250 14 102 28 195 30 208 5 19 1 22 -29 22 -39 0 -42 -4 -51
-93 -9 -79 -25 -99 -25 -30 0 26 -3 65 -6 86 -6 34 -9 37 -41 37 -18 0 -35 -6
-38 -12z"/>
<path d="M1471 638 c-17 -128 -31 -236 -31 -240 0 -5 29 -8 64 -8 63 0 64 0
68 30 5 36 2 40 -28 40 -20 0 -23 4 -19 28 3 15 14 95 25 177 11 83 23 162 26
178 5 26 4 27 -34 27 l-39 0 -32 -232z"/>
<path d="M2069 866 c-2 -3 0 -62 4 -133 6 -86 6 -156 -2 -214 -17 -130 -17
-129 24 -129 19 0 35 3 35 8 2 42 32 206 43 237 8 22 31 84 51 138 l36 98 -37
-3 c-36 -3 -38 -6 -53 -55 -22 -74 -30 -75 -30 -5 l0 62 -33 0 c-19 0 -36 -2
-38 -4z"/>
<path d="M2466 663 c-16 -115 -31 -223 -33 -241 -5 -31 -5 -32 31 -32 42 0 40
-4 57 118 9 69 16 92 27 92 15 0 15 -29 -4 -162 l-7 -48 36 0 c42 0 35 -24 72
250 14 102 28 195 30 208 5 20 2 22 -33 22 l-38 0 -13 -92 c-13 -97 -16 -108
-33 -108 -11 0 -8 62 8 159 l7 41 -40 0 -39 0 -28 -207z"/>
<path d="M2892 648 c-18 -123 -32 -231 -32 -240 0 -14 8 -18 34 -18 38 0 39 2
51 110 10 83 13 90 45 90 56 0 100 90 100 204 0 61 -20 76 -102 76 l-65 0 -31
-222z m118 113 c0 -45 -18 -101 -32 -101 -9 0 -4 79 8 123 9 31 24 18 24 -22z"/>
</g>
</svg>