<svg version="1.0" xmlns="http://www.w3.org/2000/svg"
 width="500.000000pt" height="249.000000pt" viewBox="0 0 500.000000 249.000000"
 preserveAspectRatio="xMidYMid meet">

<g transform="translate(0.000000,249.000000) scale(0.100000,-0.100000)"
fill="#000000" stroke="none">
<path d="M660 2288 c-25 -5 -62 -11 -82 -14 -20 -4 -44 -15 -54 -25 -9 -10
-26 -19 -36 -19 -10 0 -21 -8 -24 -17 -3 -10 -10 -26 -15 -35 -5 -10 -9 -28
-9 -41 0 -13 -9 -32 -20 -42 -18 -16 -20 -31 -20 -149 l0 -131 -82 3 c-46 2
-80 1 -76 -3 4 -4 37 -8 74 -9 75 -1 73 1 76 -91 2 -27 -2 -321 -6 -653 -8
-552 -8 -602 7 -602 23 0 40 36 35 76 -2 19 0 34 4 34 4 0 8 -18 8 -39 0 -45
23 -77 61 -86 19 -5 26 -2 26 9 0 8 -4 13 -9 10 -14 -9 -21 25 -8 41 7 8 23
15 36 15 29 0 44 -38 20 -55 -26 -19 -19 -25 29 -25 l45 0 0 55 0 56 123 -3
122 -3 3 -53 3 -53 47 3 47 3 5 50 c4 42 8 50 25 50 16 0 21 -8 23 -42 l3 -43
73 0 c62 0 74 3 72 16 0 9 5 19 12 21 7 3 12 -4 12 -15 0 -11 8 -22 18 -24 9
-2 220 -5 469 -7 l451 -3 4 23 c2 13 11 25 21 27 14 3 17 -4 17 -37 l0 -41 74
0 c41 0 78 5 81 10 4 6 -17 10 -54 10 -39 0 -61 4 -61 11 0 8 -5 7 -15 -1 -13
-11 -14 -10 -9 4 7 19 79 23 88 4 5 -11 7 -11 12 0 3 6 18 13 32 13 20 1 16 4
-12 8 -47 7 -66 31 -46 57 14 16 70 17 840 15 454 0 908 1 1010 3 102 3 239 5
304 5 l120 1 109 109 109 109 -7 248 c-4 137 -10 428 -14 646 l-6 398 -100
100 c-95 95 -104 102 -162 115 -52 12 -341 14 -1920 14 -1104 -1 -1876 -5
-1903 -11z m2543 -15 c-7 -2 -19 -2 -25 0 -7 3 -2 5 12 5 14 0 19 -2 13 -5z
m-2143 -24 c41 -5 124 -16 183 -23 128 -16 151 -30 145 -87 -2 -21 0 -35 3
-33 4 2 10 -2 12 -8 3 -7 4 7 2 32 l-3 44 24 -27 c13 -16 24 -26 24 -22 0 3
19 -14 43 -37 23 -24 68 -63 100 -88 34 -26 64 -58 73 -78 11 -28 17 -32 28
-23 19 16 31 -4 27 -41 -1 -16 2 -28 8 -28 6 0 11 9 11 21 0 12 5 19 13 16 8
-3 11 -20 9 -52 -3 -32 0 -45 7 -41 6 4 11 21 11 37 0 20 4 29 13 26 13 -5 12
-90 -3 -116 -6 -11 -9 -9 -15 9 -18 56 -135 199 -211 256 -18 14 -31 31 -27
37 3 6 1 7 -5 3 -6 -4 -42 9 -79 27 -94 48 -174 69 -272 73 -46 2 -86 6 -89 8
-3 3 -10 2 -16 -2 -6 -4 -36 -12 -66 -18 l-55 -12 -99 79 -99 79 114 0 c63 0
148 -5 189 -11z m1741 -17 c1 -9 0 -32 -1 -49 -1 -23 3 -33 13 -33 8 0 20 -13
26 -30 11 -34 37 -40 46 -10 3 11 13 20 22 20 22 0 66 -37 53 -45 -5 -3 -13 1
-16 9 -6 17 -34 22 -34 8 0 -5 9 -17 20 -27 25 -22 26 -39 3 -31 -13 5 -11 0
6 -18 29 -31 20 -34 -20 -6 -38 28 -110 59 -181 79 -41 11 -83 36 -143 81 -46
36 -85 67 -85 70 0 3 65 4 145 2 128 -3 145 -5 146 -20z m61 14 c3 2 8 -2 12
-11 4 -13 2 -14 -14 -5 -10 5 -22 16 -26 23 -6 9 -5 9 8 0 8 -7 17 -10 20 -7z
m306 -3 c-10 -2 -26 -2 -35 0 -10 3 -2 5 17 5 19 0 27 -2 18 -5z m129 -29 c-3
-3 -12 -4 -19 -1 -8 3 -5 6 6 6 11 1 17 -2 13 -5z m-1851 -30 c-8 -21 24 -30
84 -23 52 5 49 10 -13 14 -43 3 -45 15 -1 14 38 0 129 -15 109 -18 -5 -1 4
-12 20 -26 l30 -24 -85 6 c-87 5 -157 29 -152 51 1 6 -7 12 -17 12 -11 0 -22
4 -25 8 -3 5 9 6 25 4 20 -3 28 -9 25 -18z m1438 -2 c3 -5 -1 -9 -9 -9 -8 0
-13 3 -10 5 3 3 -3 11 -13 19 -15 13 -15 13 5 3 12 -5 24 -14 27 -18z m43 22
c-3 -3 -12 -4 -19 -1 -8 3 -5 6 6 6 11 1 17 -2 13 -5z m50 -10 c-3 -3 -12 -4
-19 -1 -8 3 -5 6 6 6 11 1 17 -2 13 -5z m-42 -24 c3 -6 -1 -7 -9 -4 -18 7 -21
14 -7 14 6 0 13 -4 16 -10z m-1175 -20 c0 6 10 8 23 6 73 -15 77 -17 77 -36 0
-11 5 -19 11 -17 6 1 14 -4 16 -11 4 -10 -2 -11 -24 -6 -15 4 -34 11 -40 17
-9 6 -13 6 -13 -2 0 -18 -52 -1 -71 23 -10 12 -21 17 -25 13 -5 -4 -2 -13 6
-18 12 -8 10 -9 -9 -7 -27 3 -42 28 -17 28 9 0 16 7 16 16 0 15 2 15 25 0 14
-9 25 -12 25 -6z m1433 13 c-7 -2 -19 -2 -25 0 -7 3 -2 5 12 5 14 0 19 -2 13
-5z m85 -10 c-10 -2 -26 -2 -35 0 -10 3 -2 5 17 5 19 0 27 -2 18 -5z m-2664
-85 l104 -83 -21 -23 c-44 -48 -54 -48 -120 4 l-61 47 -38 -41 -38 -41 0 -196
c0 -153 -3 -196 -12 -193 -10 4 -14 67 -16 263 l-2 259 42 43 c23 24 46 43 50
43 5 0 55 -37 112 -82z m2386 72 c8 -5 11 -10 5 -10 -5 0 -17 5 -25 10 -8 5
-10 10 -5 10 6 0 17 -5 25 -10z m1087 4 c-3 -3 -12 -4 -19 -1 -8 3 -5 6 6 6
11 1 17 -2 13 -5z m-2087 -35 c0 6 8 11 19 11 14 0 17 -6 13 -25 -6 -32 -25
-32 -68 3 -44 35 -44 50 1 22 19 -12 35 -17 35 -11z m1880 12 c0 -8 -91 -23
-98 -16 -2 2 16 8 40 13 58 13 58 13 58 3z m272 -15 c48 -13 89 -22 92 -20 3
2 4 1 1 -2 -2 -4 17 -18 43 -32 46 -25 152 -100 152 -109 0 -6 -18 5 -69 45
-104 79 -227 122 -376 132 l-110 7 90 1 c68 2 112 -4 177 -22z m-2072 3 c0
-12 29 -38 43 -39 12 0 8 28 -5 33 -8 3 -6 6 5 6 23 1 29 -16 25 -69 l-3 -42
-25 22 c-14 12 -19 19 -12 15 18 -9 15 13 -4 23 -9 5 -25 7 -35 5 -16 -4 -19
0 -19 26 0 21 5 31 15 31 8 0 15 -5 15 -11z m200 -41 c0 -12 -12 -9 -32 6 -26
19 -22 27 7 14 14 -6 25 -15 25 -20z m1401 15 c13 -16 12 -17 -3 -4 -17 13
-22 21 -14 21 2 0 10 -8 17 -17z m318 3 c-2 -2 -44 -6 -94 -9 -52 -3 -82 -2
-70 3 19 8 173 14 164 6z m-1796 -36 c3 -14 -1 -24 -15 -31 -25 -13 -27 -11
-21 24 6 32 28 36 36 7z m784 -22 c4 -7 6 -21 4 -32 -1 -11 2 -16 8 -12 6 4
11 0 11 -9 0 -11 5 -15 14 -12 9 4 17 -2 21 -13 3 -10 20 -31 38 -47 18 -15
33 -32 34 -38 1 -5 10 -12 20 -16 11 -5 13 -8 4 -8 -12 -1 -12 -4 0 -18 8 -10
25 -38 38 -63 14 -25 38 -58 55 -74 l31 -28 -35 24 c-19 14 -45 45 -58 69 -36
67 -85 130 -149 189 -32 30 -58 58 -58 62 0 3 -3 10 -7 14 -13 12 -9 24 6 24
8 0 18 -6 23 -12z m-2061 -54 c-22 -8 -41 -12 -44 -9 -7 6 39 24 63 24 11 0 3
-7 -19 -15z m3614 -33 c0 -26 -17 -36 -35 -21 -23 19 -18 40 10 40 18 0 25 -5
25 -19z m-260 -20 c5 -11 10 -45 10 -75 l0 -56 -39 0 -40 0 -11 58 c-6 31 -14
65 -16 75 -8 27 81 25 96 -2z m155 -31 c27 -27 47 -50 44 -50 -3 0 -27 23 -54
50 -27 28 -47 50 -44 50 3 0 27 -22 54 -50z m51 8 l29 -33 -32 29 c-31 28 -38
36 -30 36 2 0 16 -15 33 -32z m-6 -100 c0 -4 -11 -8 -24 -8 -25 0 -36 16 -36
53 0 19 2 19 30 -8 17 -16 30 -32 30 -37z m51 45 c13 -16 12 -17 -3 -4 -17 13
-22 21 -14 21 2 0 10 -8 17 -17z m-2178 -205 l16 -37 -24 9 c-28 10 -58 39
-74 69 -16 30 -14 91 4 97 8 4 15 16 16 28 0 11 10 -13 23 -54 12 -41 30 -92
39 -112z m1707 167 c0 -8 -4 -15 -10 -15 -5 0 -10 7 -10 15 0 8 5 15 10 15 6
0 10 -7 10 -15z m-2218 -61 c-2 -27 -5 -51 -8 -53 -12 -12 -20 19 -16 62 6 65
28 57 24 -9z m2736 21 c-3 -3 -9 2 -12 12 -6 14 -5 15 5 6 7 -7 10 -15 7 -18z
m-2693 -59 c-4 -25 -11 -46 -16 -46 -10 0 -12 54 -3 88 11 41 26 7 19 -42z
m-292 27 c-4 -11 -3 -14 5 -9 7 4 12 1 12 -7 0 -29 -25 -25 -27 4 -1 16 2 29
7 29 5 0 6 -7 3 -17z m620 -151 c53 -53 52 -55 -15 -39 -16 4 -39 9 -53 12
-48 10 -82 118 -53 165 11 17 14 15 40 -33 16 -29 52 -76 81 -105z m-289 133
c-4 -8 -8 -15 -10 -15 -2 0 -4 7 -4 15 0 8 4 15 10 15 5 0 7 -7 4 -15z m-560
-39 c-3 -15 -18 -35 -33 -44 -14 -9 -29 -21 -33 -27 -5 -6 -8 -6 -8 2 0 6 4
14 9 18 5 3 12 19 16 35 8 36 34 65 47 52 5 -5 6 -21 2 -36z m490 -132 c1 -92
-9 -112 -19 -36 -6 48 -28 141 -41 177 -5 11 7 3 26 -18 33 -38 34 -42 34
-123z m2193 109 c-3 -10 -5 -4 -5 12 0 17 2 24 5 18 2 -7 2 -21 0 -30z m444
18 c-6 -10 -8 -21 -5 -24 10 -9 -17 -48 -28 -41 -7 5 -8 2 -3 -7 8 -12 6 -12
-8 0 -23 19 -21 29 11 61 32 32 47 37 33 11z m-239 -23 c-7 -7 -12 -8 -12 -2
0 14 12 26 19 19 2 -3 -1 -11 -7 -17z m-961 -5 c13 -16 12 -17 -3 -4 -17 13
-22 21 -14 21 2 0 10 -8 17 -17z m906 -20 c-3 -10 -5 -4 -5 12 0 17 2 24 5 18
2 -7 2 -21 0 -30z m-20 -25 c-2 -13 -4 -5 -4 17 -1 22 1 32 4 23 2 -10 2 -28
0 -40z m-2947 17 c67 -35 129 -155 114 -222 -4 -21 -8 -42 -8 -48 -1 -13 -41
-55 -54 -55 -5 0 -18 -12 -29 -27 -19 -30 -28 -34 -85 -41 -22 -2 -38 0 -38 6
0 6 -10 13 -22 15 -14 2 -6 5 17 6 91 3 175 52 175 101 0 9 -8 3 -18 -12 -9
-16 -21 -28 -26 -28 -15 0 -46 42 -39 54 4 6 18 26 30 45 13 19 22 36 19 38
-8 8 -54 -20 -50 -32 3 -6 -2 -18 -11 -25 -12 -10 -18 -10 -30 0 -24 20 -19
26 46 55 33 15 58 29 55 32 -9 10 -91 -26 -140 -61 l-46 -33 25 -11 c14 -7 35
-12 46 -12 12 0 27 -12 37 -30 9 -16 21 -30 26 -30 5 0 3 -7 -4 -15 -34 -41
-168 -19 -214 36 -14 17 -26 26 -26 21 0 -18 44 -65 74 -78 18 -8 24 -13 14
-14 -32 0 -84 32 -108 68 -34 49 -33 117 5 200 29 65 66 97 129 113 37 9 102
1 136 -16z m1391 10 c56 -20 86 -49 112 -105 22 -50 38 -150 24 -150 -5 0 -7
-9 -4 -20 3 -11 1 -18 -4 -14 -5 3 -10 0 -10 -5 -1 -6 -2 -16 -3 -23 -1 -13
-34 -20 -41 -8 -3 5 -1 11 5 15 5 3 10 13 10 22 0 11 -4 10 -17 -6 l-18 -22
-45 46 -44 45 41 0 c27 0 43 5 47 15 6 17 -9 21 -19 5 -3 -5 -15 -10 -26 -10
-17 0 -18 3 -9 20 6 12 21 20 35 20 14 0 25 5 25 10 0 6 -14 10 -31 10 -25 0
-32 -6 -45 -36 -8 -20 -18 -34 -20 -31 -3 3 -1 14 5 25 18 33 13 42 -24 42
-27 0 -38 6 -52 28 -10 15 -20 29 -24 32 -3 3 -11 14 -17 25 -9 17 -7 22 11
32 l22 12 -24 1 c-26 0 -91 -61 -91 -86 0 -10 8 -6 23 11 l22 26 40 -40 39
-41 -35 0 c-30 0 -38 -5 -52 -35 -20 -43 -4 -47 18 -5 15 28 45 42 45 20 0 -5
-7 -10 -16 -10 -19 0 -15 -31 5 -38 9 -3 12 1 9 9 -2 8 4 23 15 33 20 19 20
19 13 -9 -5 -18 -3 -31 5 -35 8 -6 5 -17 -13 -41 -14 -19 -28 -42 -31 -51 -9
-26 -21 -22 -56 17 -17 20 -31 31 -31 24 0 -6 17 -29 39 -50 21 -22 35 -39 30
-39 -24 0 -59 26 -83 63 -25 38 -27 48 -22 101 16 161 132 248 267 201z m1441
-16 c59 -30 108 -118 108 -195 0 -56 -35 -124 -63 -124 -18 0 -18 1 2 26 12
15 21 32 21 38 0 6 -12 -4 -26 -21 l-25 -33 -24 28 c-23 26 -23 28 -6 47 23
26 44 65 38 72 -3 2 -18 -2 -34 -11 -15 -8 -22 -15 -15 -16 10 0 10 -5 2 -20
-8 -14 -21 -20 -45 -20 -19 0 -35 5 -35 11 0 6 9 8 23 4 15 -4 18 -3 8 3 -16
12 3 27 21 16 7 -4 8 -3 4 5 -5 7 10 19 41 32 26 12 42 24 35 26 -15 6 -106
-38 -148 -72 l-29 -23 25 -10 c14 -5 39 -14 55 -19 17 -5 29 -15 27 -21 -1 -7
5 -15 13 -18 37 -15 -6 -54 -59 -54 -51 0 -125 31 -150 63 -14 17 -26 28 -26
22 0 -5 17 -27 38 -49 22 -24 30 -36 19 -32 -10 3 -23 6 -28 6 -19 0 -69 94
-69 130 0 179 152 284 302 209z m442 -21 c-4 -29 -13 -63 -21 -75 -18 -28
-100 -66 -129 -60 -13 2 -21 0 -18 -4 3 -5 -6 -9 -20 -9 -13 0 -31 -6 -39 -14
-9 -9 -19 -11 -28 -5 -11 7 -11 9 4 9 9 0 17 5 17 10 0 6 9 10 20 10 11 0 28
7 37 15 10 8 40 30 67 47 27 18 63 54 80 80 17 26 32 47 34 47 1 1 0 -23 -4
-51z m-347 -15 c-3 -10 -5 -4 -5 12 0 17 2 24 5 18 2 -7 2 -21 0 -30z m-2343
-50 c-9 -78 -14 -79 -14 -5 0 38 4 62 11 62 7 0 8 -19 3 -57z m-1055 -18 c0
-5 -4 -3 -9 5 -5 8 -9 22 -9 30 0 16 17 -16 18 -35z m3910 -39 c1 -67 -5 -55
-12 24 -4 40 -2 57 3 45 5 -11 9 -42 9 -69z m-4219 -60 c1 -177 65 -322 204
-461 73 -73 107 -99 176 -133 96 -47 189 -72 270 -72 47 0 61 -5 90 -29 l34
-28 -204 26 c-231 30 -189 14 -482 183 l-138 80 0 181 c0 100 3 227 7 281 6
98 6 99 25 76 14 -17 18 -40 18 -104z m1280 99 c-7 -8 -9 -15 -5 -15 4 0 2 -7
-5 -15 -22 -26 -30 -16 -12 15 9 16 21 30 26 30 5 0 3 -7 -4 -15z m314 -44
c-2 -3 -12 3 -22 13 -16 17 -16 18 5 5 12 -7 20 -15 17 -18z m526 -31 c-9 -17
-40 -29 -40 -16 0 18 15 36 31 36 17 0 18 -3 9 -20z m2097 -87 c-2 -16 -4 -5
-4 22 0 28 2 40 4 28 2 -13 2 -35 0 -50z m-3502 47 c3 -5 -3 -10 -15 -10 -12
0 -18 5 -15 10 3 6 10 10 15 10 5 0 12 -4 15 -10z m1445 -46 c28 -46 31 -57
19 -66 -10 -7 -5 -8 19 -4 41 7 41 -4 0 -29 -36 -21 -98 -31 -98 -16 0 5 -8
12 -17 14 -10 3 0 6 22 7 l40 2 -50 12 c-40 9 -46 13 -27 18 19 5 22 13 22 55
0 83 22 85 70 7z m688 -84 c10 -41 27 -90 36 -108 17 -33 15 -52 -7 -52 -8 0
-8 3 2 9 9 6 10 11 2 15 -6 4 -11 16 -11 26 0 10 -4 21 -9 24 -5 4 -7 -3 -4
-14 4 -16 2 -19 -12 -14 -14 6 -17 16 -13 58 3 28 -1 71 -7 96 -13 45 -13 45
-8 -25 5 -57 2 -73 -11 -84 -9 -7 -16 -10 -16 -6 0 4 -7 2 -15 -5 -8 -7 -15
-20 -15 -29 0 -13 2 -14 9 -2 8 12 18 8 55 -23 25 -20 46 -40 46 -42 0 -7 -22
6 -47 29 -13 11 -26 17 -30 13 -8 -7 12 -27 53 -53 16 -10 13 -11 -17 -6 -37
5 -60 -9 -37 -23 21 -13 89 -11 84 3 -3 6 2 14 10 17 8 3 13 9 12 13 -2 4 2 8
7 8 6 0 9 -6 9 -13 -1 -7 1 -11 4 -8 5 6 11 -2 48 -59 17 -27 17 -28 1 -22 -9
3 -17 2 -17 -4 0 -6 -9 -8 -20 -4 -12 4 -20 2 -20 -5 0 -6 4 -8 10 -5 6 4 7
-1 3 -11 -5 -13 -3 -16 10 -11 11 4 14 2 10 -9 -3 -7 0 -14 6 -14 6 0 11 7 11
15 0 8 9 15 20 15 11 0 23 0 27 1 21 2 11 -22 -14 -32 -26 -10 -27 -11 -9 -21
13 -7 20 -7 26 2 5 8 13 9 21 4 8 -5 20 -9 28 -11 19 -2 39 -23 23 -23 -7 0
-12 -5 -12 -10 0 -6 10 -8 23 -5 23 5 87 -41 87 -64 0 -16 -15 -14 -30 4 -7 8
-16 12 -21 9 -5 -3 -9 2 -9 10 0 17 -15 22 -24 8 -8 -14 42 -52 67 -52 13 0
28 5 35 12 9 9 24 8 67 -6 30 -11 52 -23 49 -27 -3 -5 8 -6 24 -3 16 3 32 2
35 -4 4 -5 -4 -7 -18 -4 -15 2 -25 0 -25 -7 0 -6 7 -11 15 -11 8 0 19 -10 26
-21 8 -15 8 -19 0 -15 -15 10 -82 -15 -78 -29 2 -5 11 -10 20 -9 10 0 31 1 48
2 17 1 28 6 24 12 -3 6 0 10 7 10 9 0 13 12 13 35 -1 19 1 35 4 35 3 0 19 -14
35 -30 22 -23 25 -30 13 -30 -9 0 -21 -9 -27 -20 -6 -11 -17 -20 -25 -20 -8 0
-15 -4 -15 -10 0 -6 9 -6 26 0 21 8 33 6 59 -10 18 -11 42 -20 55 -20 18 0 21
4 16 23 -5 20 -1 23 30 25 44 3 111 -15 121 -32 4 -8 22 -16 38 -19 48 -7
-274 -7 -332 -1 -29 4 -50 10 -48 14 2 4 -6 5 -18 3 -24 -4 -94 50 -99 77 -4
18 -36 55 -43 48 -3 -2 4 -15 15 -28 34 -39 22 -36 -22 6 -24 22 -105 89 -180
149 -76 59 -135 112 -131 118 4 6 1 7 -6 2 -8 -4 -21 1 -32 14 -11 12 -23 21
-27 21 -4 0 -27 17 -50 38 l-44 38 25 55 c14 31 33 91 43 133 22 93 34 88 62
-24z m1209 58 c-3 -8 -6 -5 -6 6 -1 11 2 17 5 13 3 -3 4 -12 1 -19z m-231 -1
c36 0 51 -4 48 -12 -3 -7 -27 -11 -67 -10 -85 2 -87 3 -87 20 0 12 7 14 27 9
15 -4 51 -7 79 -7z m71 -9 c-3 -8 -6 -5 -6 6 -1 11 2 17 5 13 3 -3 4 -12 1
-19z m310 -20 c-3 -8 -6 -5 -6 6 -1 11 2 17 5 13 3 -3 4 -12 1 -19z m-147 -8
c0 -5 -5 -10 -11 -10 -5 0 -7 5 -4 10 3 6 8 10 11 10 2 0 4 -4 4 -10z m-420
-10 c0 -5 -18 -19 -40 -30 -41 -21 -90 -27 -90 -11 0 5 -10 12 -22 14 -14 2
-6 5 17 6 22 1 60 8 85 15 25 8 46 15 48 15 1 1 2 -3 2 -9z m-1746 -31 c-25
-28 -80 -55 -127 -62 -33 -5 -37 -4 -27 8 7 8 17 15 23 15 6 0 19 8 29 17 18
16 109 52 117 46 2 -2 -4 -12 -15 -24z m2296 -19 c-7 -16 -10 -37 -6 -45 4
-11 2 -14 -6 -9 -8 5 -9 -2 -4 -27 17 -74 18 -85 7 -69 -21 30 -23 88 -5 145
10 32 20 52 22 46 2 -7 -1 -25 -8 -41z m-173 24 c-3 -3 -12 -4 -19 -1 -8 3 -5
6 6 6 11 1 17 -2 13 -5z m-1994 -41 c-7 -3 -13 -13 -13 -24 0 -11 -6 -29 -12
-41 -19 -31 -99 -108 -130 -124 -33 -17 -114 -19 -124 -2 -4 7 -3 8 4 4 7 -4
12 -3 12 2 0 4 30 15 66 22 37 8 61 16 55 18 -9 3 -9 7 0 18 10 12 14 12 20 2
6 -9 9 -6 9 10 0 15 10 29 28 39 15 9 41 34 56 55 16 22 31 36 35 32 3 -4 0
-9 -6 -11z m-1223 -118 c20 -27 44 -56 53 -64 10 -7 17 -22 17 -32 0 -41 -89
-10 -115 40 -8 16 -14 51 -14 78 1 27 -4 59 -10 71 -6 11 -11 24 -11 29 1 4
10 -10 22 -32 12 -22 38 -62 58 -90z m1349 3 c2 -100 -28 -141 -121 -168 -34
-10 -35 -6 -4 34 36 47 74 127 93 198 16 58 18 61 24 33 4 -16 7 -60 8 -97z
m1339 -31 c-9 -6 -8 -7 5 -3 17 5 22 -8 18 -43 -2 -7 2 -10 8 -6 14 8 14 4 -3
-35 l-13 -32 -21 27 c-12 15 -19 31 -16 36 3 5 0 9 -5 9 -15 0 -14 71 1 119
l12 39 13 -51 c11 -41 11 -52 1 -60z m-3272 85 c6 -4 13 -15 17 -24 8 -24 -30
-35 -50 -15 -27 27 1 61 33 39z m3830 -60 c-15 -15 -16 -13 -15 23 1 39 2 39
9 10 l8 -30 2 35 c3 33 3 34 7 6 3 -18 -1 -35 -11 -44z m-2544 -79 c275 -223
282 -229 300 -250 17 -18 16 -19 -17 -15 -23 3 -35 0 -35 -8 0 -9 -11 -11 -35
-7 l-35 6 26 -35 c14 -18 29 -32 33 -30 3 2 12 -7 18 -21 l13 -26 -26 24 c-69
63 -98 95 -96 102 1 5 -2 6 -7 3 -5 -3 -37 17 -72 45 -68 54 -94 78 -70 64 10
-5 12 -4 7 4 -4 6 -11 9 -15 7 -10 -7 -53 23 -47 33 3 4 -1 8 -8 8 -8 0 -50
28 -93 63 l-80 63 31 53 c17 30 33 54 34 54 2 0 80 -62 174 -137z m812 66 c30
-60 3 -134 -64 -173 l-32 -19 18 34 c12 23 19 64 22 127 4 90 5 92 23 76 11
-10 25 -30 33 -45z m1705 24 c0 -31 -2 -34 -9 -18 -8 19 -9 19 -9 -1 -1 -12
-8 -24 -16 -28 -11 -4 -15 3 -16 27 l-2 32 -6 -30 c-8 -41 -41 -47 -42 -8 l-1
28 -8 -30 -8 -30 -2 30 c-1 18 -4 23 -7 13 -2 -10 -8 -18 -12 -18 -7 0 -51 46
-51 53 0 2 24 3 53 2 28 -1 63 2 77 6 52 15 60 12 59 -28z m-3425 -35 c7 -51
25 -108 51 -158 21 -40 15 -47 -22 -24 -82 51 -104 102 -63 146 12 13 20 36
20 57 0 46 6 37 14 -21z m3606 -23 c0 -8 -2 -15 -4 -15 -2 0 -6 7 -10 15 -3 8
-1 15 4 15 6 0 10 -7 10 -15z m-1720 -14 c0 -11 -4 -23 -10 -26 -6 -4 -10 5
-10 19 0 14 5 26 10 26 6 0 10 -9 10 -19z m-2115 -50 c4 -15 3 -21 -3 -17 -5
3 -12 17 -15 32 -5 30 8 20 18 -15z m2931 -43 c8 -16 13 -33 9 -36 -10 -10
-45 37 -45 60 0 25 16 15 36 -24z m634 -73 c-13 -14 -31 -25 -39 -25 -13 -1
-13 -3 2 -15 11 -7 26 -11 35 -8 11 5 14 2 9 -10 -3 -9 -2 -17 3 -17 6 0 10
-5 10 -11 0 -11 -79 41 -80 52 0 6 70 57 79 58 3 1 -6 -10 -19 -24z m-3675
-100 c39 -23 97 -57 129 -75 l60 -34 -40 -11 c-37 -11 -43 -10 -109 27 -209
115 -203 110 -214 149 -6 20 -11 40 -11 43 0 8 57 -23 185 -99z m2277 42 c29
-23 51 -31 110 -37 40 -5 134 -18 208 -29 74 -11 179 -25 232 -32 83 -10 103
-16 140 -43 27 -20 37 -32 27 -34 -8 -1 -116 11 -240 28 -264 36 -494 67 -599
80 -41 6 -88 13 -104 16 -28 6 -27 7 24 25 30 10 74 30 99 43 50 26 49 26 103
-17z m1768 -21 c0 -2 -8 -10 -17 -17 -16 -13 -17 -12 -4 4 13 16 21 21 21 13z
m-3190 -51 c102 -13 262 -35 355 -49 94 -14 182 -26 196 -26 14 0 34 -6 45
-14 14 -11 15 -14 4 -14 -8 1 -40 0 -70 -2 -50 -3 -48 -4 30 -10 71 -5 58 -7
-80 -8 -140 -2 -212 4 -472 37 -293 37 -309 40 -344 68 l-37 28 54 12 c60 13
56 13 319 -22z m2438 -39 c9 -3 38 -6 65 -8 33 -1 53 -8 65 -22 16 -19 16 -19
-3 -11 -11 4 -45 10 -75 13 -58 5 -80 22 -78 57 1 18 1 17 5 -2 2 -12 12 -24
21 -27z m702 41 c0 -1 -26 -29 -58 -60 -55 -54 -60 -57 -73 -40 -12 16 -12 17
2 6 13 -10 24 -4 69 42 51 51 60 59 60 52z m-631 -21 c10 -12 8 -13 -8 -9 -12
3 -21 9 -21 14 0 14 16 11 29 -5z m-1769 -41 c10 -13 10 -19 -4 -34 -17 -19
-17 -20 6 -24 23 -4 23 -4 -2 -6 -19 -1 -28 6 -38 29 -20 45 8 71 38 35z
m1669 1 c6 -7 8 -22 4 -31 -5 -14 -3 -16 8 -10 11 6 11 5 2 -5 -10 -11 -17
-10 -37 4 -25 16 -33 36 -19 49 11 11 30 8 42 -7z m572 -13 c13 -16 12 -17 -3
-4 -10 7 -18 15 -18 17 0 8 8 3 21 -13z"/>
<path d="M1012 2210 c10 -16 10 -24 0 -42 l-13 -23 20 22 c21 25 18 63 -5 63
-12 0 -12 -4 -2 -20z"/>
<path d="M1150 2224 c0 -6 6 -17 14 -23 10 -9 17 -7 27 6 13 16 12 17 -3 5
-14 -11 -18 -10 -27 5 -6 10 -11 13 -11 7z"/>
<path d="M960 2209 c0 -5 5 -7 10 -4 6 3 10 8 10 11 0 2 -4 4 -10 4 -5 0 -10
-5 -10 -11z"/>
<path d="M1239 2192 c9 -17 9 -23 -1 -26 -38 -12 -41 -14 -17 -15 33 -1 46 26
23 48 -15 15 -15 14 -5 -7z"/>
<path d="M1335 2160 c4 -6 11 -8 16 -5 14 9 11 15 -7 15 -8 0 -12 -5 -9 -10z"/>
<path d="M1366 2135 c4 -8 8 -15 10 -15 2 0 4 7 4 15 0 8 -4 15 -10 15 -5 0
-7 -7 -4 -15z"/>
<path d="M2726 2228 c3 -4 -3 -12 -14 -16 -14 -5 -17 -12 -11 -27 6 -15 8 -16
8 -4 2 42 55 46 71 5 8 -18 9 -17 9 12 1 19 -4 32 -11 33 -7 0 -23 2 -35 3
-12 1 -20 -1 -17 -6z"/>
<path d="M2720 2150 c0 -6 7 -10 15 -10 8 0 15 2 15 4 0 2 -7 6 -15 10 -8 3
-15 1 -15 -4z"/>
<path d="M1781 2124 c0 -11 3 -14 6 -6 3 7 2 16 -1 19 -3 4 -6 -2 -5 -13z"/>
<path d="M1820 2125 c7 -9 15 -13 17 -11 7 7 -7 26 -19 26 -6 0 -6 -6 2 -15z"/>
<path d="M4510 1939 c0 -5 5 -7 10 -4 6 3 10 8 10 11 0 2 -4 4 -10 4 -5 0 -10
-5 -10 -11z"/>
<path d="M1120 1603 c79 -13 130 -35 154 -66 14 -17 26 -27 26 -20 0 16 -59
73 -87 84 -13 5 -45 8 -71 8 -26 -1 -36 -4 -22 -6z"/>
<path d="M1045 1589 c-17 -4 -38 -21 -48 -38 -23 -39 -21 -52 3 -21 l20 25 45
-47 c42 -44 55 -55 55 -44 0 3 -6 11 -12 18 -7 8 -23 32 -35 55 l-22 40 22 11
c26 13 13 13 -28 1z"/>
<path d="M1158 1550 c2 -16 6 -30 8 -30 2 0 4 14 4 30 0 17 -4 30 -8 30 -5 0
-7 -13 -4 -30z"/>
<path d="M1164 1503 c2 -2 -17 -23 -41 -49 -35 -36 -48 -44 -66 -38 -20 6 -20
5 6 -30 16 -20 25 -42 21 -49 -5 -9 -4 -9 6 0 7 6 19 9 26 6 8 -3 14 0 14 6 0
6 -9 11 -19 11 -58 0 -3 69 97 120 23 12 42 23 42 24 0 1 -20 1 -44 1 -24 0
-43 -1 -42 -2z"/>
<path d="M1006 1416 c3 -8 13 -17 22 -21 13 -5 13 -2 -3 15 -21 24 -26 25 -19
6z"/>
<path d="M2545 1610 l-40 -6 40 -5 c39 -4 40 -5 37 -38 -2 -19 -8 -45 -13 -58
-6 -18 -5 -23 7 -23 8 0 17 8 21 18 3 9 14 29 24 43 10 14 15 30 11 35 -4 4 4
1 18 -8 14 -8 35 -30 48 -48 13 -20 22 -27 22 -17 0 24 -60 88 -97 103 -18 8
-34 13 -35 13 -2 -1 -21 -5 -43 -9z"/>
<path d="M3950 1611 c-34 -7 -34 -7 15 -12 67 -7 120 -34 144 -72 12 -18 21
-26 21 -20 0 19 -68 91 -93 98 -39 11 -51 12 -87 6z"/>
<path d="M3833 1562 c-18 -18 -33 -40 -33 -49 0 -11 6 -7 21 11 11 14 23 26
27 26 4 0 27 -23 51 -51 42 -48 43 -51 25 -70 -11 -12 -24 -17 -37 -13 -22 7
-17 -6 15 -42 19 -21 19 -24 3 -55 -13 -29 -14 -31 0 -15 8 11 15 23 15 28 0
4 10 8 23 8 19 0 17 3 -13 21 l-35 21 40 34 c22 18 65 47 95 64 l55 30 -40 -6
c-22 -3 -53 -15 -69 -26 -32 -23 -31 -24 -71 54 -23 44 -24 48 -7 57 14 8 13
10 -8 8 -14 0 -39 -16 -57 -35z"/>
<path d="M3980 1550 c0 -25 4 -39 10 -35 6 3 10 17 10 31 0 22 3 24 23 19 15
-5 19 -4 12 3 -5 5 -20 13 -32 17 -21 6 -23 3 -23 -35z"/>
<path d="M3830 1420 c0 -5 10 -15 23 -21 22 -12 22 -12 3 10 -21 23 -26 26
-26 11z"/>
<path d="M493 1056 c7 -13 15 -22 19 -20 10 6 -9 44 -21 44 -5 0 -4 -11 2 -24z"/>
<path d="M3369 1027 c6 -8 8 -17 4 -20 -3 -4 2 -7 12 -7 17 0 17 1 0 20 -20
22 -34 28 -16 7z"/>
<path d="M3482 858 c5 -15 28 -23 28 -10 0 5 -7 13 -16 16 -10 4 -14 1 -12 -6z"/>
<path d="M3675 761 c-7 -13 32 -34 46 -26 7 5 6 11 -2 21 -13 16 -35 18 -44 5z"/>
<path d="M4032 628 c6 -17 37 -23 51 -9 7 7 3 8 -12 4 -12 -3 -21 -1 -21 6 0
6 -5 11 -11 11 -6 0 -9 -6 -7 -12z"/>
<path d="M580 790 c-13 -9 -12 -12 5 -25 11 -9 25 -13 31 -11 7 3 15 -2 18
-10 3 -8 10 -14 16 -14 6 0 20 -9 32 -20 26 -24 32 -25 48 -5 10 13 7 17 -21
30 -19 9 -49 27 -68 40 -38 28 -40 29 -61 15z m34 -8 c3 -5 -1 -9 -9 -9 -8 0
-12 4 -9 9 3 4 7 8 9 8 2 0 6 -4 9 -8z"/>
<path d="M742 698 c-15 -15 2 -38 28 -38 10 0 20 -6 23 -12 3 -10 10 -8 23 5
11 10 14 17 6 17 -7 0 -22 9 -34 20 -25 23 -30 24 -46 8z"/>
<path d="M373 395 c0 -33 2 -45 4 -27 2 18 2 45 0 60 -2 15 -4 0 -4 -33z"/>
<path d="M371 304 c0 -11 3 -14 6 -6 3 7 2 16 -1 19 -3 4 -6 -2 -5 -13z"/>
<path d="M401 300 c0 -8 4 -24 9 -35 l9 -20 0 20 c0 11 -4 27 -9 35 -9 13 -10
13 -9 0z"/>
<path d="M372 230 c0 -14 2 -19 5 -12 2 6 2 18 0 25 -3 6 -5 1 -5 -13z"/>
</g>
</svg>